<svg width="25" height="25" viewBox="0 0 25 25" fill="none" xmlns="http://www.w3.org/2000/svg">
<path d="M4.50003 16.5V14.12C4.50003 12 3.47003 11 3.50003 8.5C3.53003 5.78 4.99003 2.5 8.00003 2.5C9.87003 2.5 10.5 4.3 10.5 6C10.5 9.11 8.50003 11.66 8.50003 14.68V16.5C8.50003 17.0304 8.28932 17.5391 7.91425 17.9142C7.53917 18.2893 7.03047 18.5 6.50003 18.5C5.9696 18.5 5.46089 18.2893 5.08582 17.9142C4.71075 17.5391 4.50003 17.0304 4.50003 16.5Z" stroke="#FDF8F3" stroke-width="2" stroke-linecap="round" stroke-linejoin="round"/>
<path d="M20.5 20.5V18.12C20.5 16 21.53 15 21.5 12.5C21.47 9.78 20.01 6.5 17 6.5C15.13 6.5 14.5 8.3 14.5 10C14.5 13.11 16.5 15.66 16.5 18.68V20.5C16.5 21.0304 16.7107 21.5391 17.0858 21.9142C17.4609 22.2893 17.9696 22.5 18.5 22.5C19.0304 22.5 19.5391 22.2893 19.9142 21.9142C20.2893 21.5391 20.5 21.0304 20.5 20.5Z" stroke="#FDF8F3" stroke-width="2" stroke-linecap="round" stroke-linejoin="round"/>
<path d="M16.5 17.5H20.5" stroke="#FDF8F3" stroke-width="2" stroke-linecap="round" stroke-linejoin="round"/>
<path d="M4.5 13.5H8.5" stroke="#FDF8F3" stroke-width="2" stroke-linecap="round" stroke-linejoin="round"/>
</svg>
