<svg width="12" height="14" viewBox="0 0 12 14" fill="none" xmlns="http://www.w3.org/2000/svg">
<path d="M7.875 1H2.25C1.91848 1 1.60054 1.12643 1.36612 1.35147C1.1317 1.57652 1 1.88174 1 2.2V11.8C1 12.1183 1.1317 12.4235 1.36612 12.6485C1.60054 12.8736 1.91848 13 2.25 13H9.75C10.0815 13 10.3995 12.8736 10.6339 12.6485C10.8683 12.4235 11 12.1183 11 11.8V4L7.875 1Z" stroke="#F64D0C" stroke-linecap="round" stroke-linejoin="round"/>
<path d="M7.25 1V3.4C7.25 3.71826 7.3817 4.02348 7.61612 4.24853C7.85054 4.47357 8.16848 4.6 8.5 4.6H11" stroke="#F64D0C" stroke-linecap="round" stroke-linejoin="round"/>
<path d="M8.5 7L5.5 10.5L4 8.5" stroke="#F64D0C" stroke-linecap="round" stroke-linejoin="round"/>
</svg>
